<?xml version="1.0" standalone="no"?>
<!DOCTYPE svg PUBLIC "-//W3C//DTD SVG 20010904//EN"
 "http://www.w3.org/TR/2001/REC-SVG-20010904/DTD/svg10.dtd">
<svg version="1.0" xmlns="http://www.w3.org/2000/svg"
 width="300.000000pt" height="238.000000pt" viewBox="0 0 300.000000 238.000000"
 preserveAspectRatio="xMidYMid meet">
<metadata>
Created by potrace 1.10, written by Peter Selinger 2001-2011
</metadata>
<g transform="translate(0.000000,238.000000) scale(0.100000,-0.100000)"
fill="#000000" stroke="none">
<path d="M197 2243 c-16 -15 -4 -29 43 -52 72 -36 138 -98 246 -231 113 -142
238 -262 322 -311 46 -27 58 -39 51 -50 -14 -22 -10 -56 7 -63 22 -8 24 -8 24
9 0 44 86 39 126 -8 29 -35 27 -47 -10 -65 -25 -13 -35 -9 -137 42 -61 31
-123 56 -138 56 -36 0 -90 -36 -169 -113 -91 -89 -90 -84 -43 -180 22 -45 67
-139 100 -210 l60 -128 -15 -41 c-7 -22 -14 -55 -14 -72 0 -17 -6 -38 -13 -47
-8 -11 -12 -65 -12 -175 1 -145 3 -163 23 -202 12 -23 27 -42 32 -42 6 0 10
-11 10 -25 0 -14 15 -41 35 -64 19 -21 35 -42 35 -46 0 -11 33 -34 49 -35 8 0
22 -6 30 -14 9 -7 41 -17 71 -20 51 -6 59 -4 96 22 46 33 104 138 104 187 0
73 -40 142 -55 96 -3 -11 -19 -24 -35 -31 -32 -13 -44 -37 -34 -65 5 -13 4
-16 -4 -11 -15 9 -15 42 1 88 18 50 45 78 77 78 21 0 30 -9 49 -47 35 -72 102
-172 156 -232 l49 -53 53 4 c31 3 61 12 72 22 19 17 20 17 31 -4 10 -19 18
-21 109 -19 54 1 103 -1 109 -5 31 -19 50 6 91 118 28 74 57 133 87 172 83
111 173 323 205 484 11 58 11 58 40 50 33 -10 91 4 114 26 41 41 42 88 3 152
-26 42 -18 74 24 101 39 25 16 29 -36 7 -47 -20 -53 -47 -22 -93 30 -43 33
-79 10 -111 -18 -26 -59 -29 -90 -7 -16 10 -23 30 -28 72 -8 68 -26 134 -54
192 l-20 41 21 0 c21 0 107 78 107 97 0 5 6 21 12 36 12 23 18 26 63 25 48 -2
89 9 147 38 14 8 39 14 55 14 16 0 37 6 48 14 11 7 42 16 69 20 27 3 55 11 63
17 7 7 34 15 59 20 25 5 59 20 76 34 16 14 39 25 51 25 26 0 126 60 127 76 0
7 -47 13 -132 17 -137 6 -268 25 -398 57 -84 20 -166 34 -287 49 -142 18 -278
-17 -378 -96 -27 -21 -65 -45 -83 -52 -39 -16 -65 -51 -56 -75 5 -14 -3 -16
-62 -17 -38 0 -78 -4 -89 -8 -16 -7 -33 5 -92 65 -46 48 -77 72 -86 68 -8 -3
-18 -1 -22 5 -3 6 -16 11 -28 11 -13 1 -30 13 -42 32 -11 17 -33 36 -50 42
-16 6 -42 19 -58 30 -15 10 -40 19 -56 20 -16 1 -37 9 -48 17 -29 26 -59 39
-89 39 -35 0 -84 16 -153 48 -30 14 -75 29 -100 33 -65 10 -112 30 -152 63
-74 63 -225 116 -252 89z m148 -49 c31 -14 84 -57 137 -111 111 -112 110 -110
65 -80 -21 14 -52 31 -70 36 -18 6 -62 40 -99 75 -37 35 -85 72 -107 82 -22
11 -41 22 -41 26 0 13 62 -3 115 -28z m352 -236 c114 -96 149 -133 104 -109
-10 6 -43 31 -72 56 -29 24 -69 53 -90 63 -34 17 -129 110 -129 126 0 13 72
-39 187 -136z m-8 82 c29 -15 142 -110 206 -173 28 -27 38 -42 23 -32 -14 9
-38 17 -52 19 -14 1 -57 31 -98 67 -40 36 -94 81 -120 101 -26 19 -45 38 -42
41 7 6 52 -6 83 -23z m-152 -57 c24 -22 42 -31 55 -28 22 8 106 -37 143 -75
21 -22 23 -29 12 -38 -11 -9 -23 -7 -55 10 -23 13 -44 19 -49 14 -4 -5 -3 -11
3 -13 6 -2 32 -17 58 -33 33 -21 48 -38 52 -59 7 -33 69 -81 104 -81 18 0 19
2 8 20 -11 17 -10 22 2 30 22 14 63 12 98 -6 31 -15 45 -30 20 -21 -22 7 -49
-13 -43 -32 4 -13 -4 -20 -30 -30 -32 -11 -39 -10 -82 15 -55 32 -334 307
-366 361 -14 23 35 0 70 -34z m274 9 c37 -24 219 -194 219 -203 0 -16 -76 43
-166 131 -91 88 -105 107 -53 72z m92 -18 c31 -15 177 -161 177 -176 0 -22
-34 -2 -75 45 -26 28 -71 73 -102 100 -56 48 -56 59 0 31z m130 -58 c22 -17
127 -147 127 -158 0 -22 -25 0 -94 82 -69 81 -83 113 -33 76z m1102 -14 l50
-7 -30 -12 c-16 -6 -80 -23 -141 -37 -61 -14 -137 -35 -167 -46 -43 -16 -61
-19 -76 -11 -11 6 -30 11 -43 11 -23 1 -23 1 -3 16 33 27 139 74 186 83 53 11
156 12 224 3z m290 -52 l190 -40 -110 4 c-60 3 -157 14 -215 26 -58 11 -107
20 -109 20 -3 0 4 7 15 15 10 8 24 14 29 14 6 0 96 -18 200 -39z m-1282 -2
c31 -42 60 -98 50 -98 -7 0 -18 15 -76 102 -26 39 -3 35 26 -4z m987 2 c0 -17
-57 -40 -170 -70 -60 -15 -113 -31 -118 -34 -5 -3 -15 1 -22 9 -15 18 24 35
152 65 51 12 104 26 118 30 34 12 40 12 40 0z m166 -25 c74 -14 150 -25 167
-25 28 -1 30 -2 13 -12 -22 -12 -157 -5 -265 14 -78 14 -73 11 -65 32 8 20
-11 21 150 -9z m-1441 -27 l48 -32 -26 -9 c-16 -5 -30 -19 -33 -33 -6 -23 -7
-24 -35 -7 -21 12 -29 25 -29 45 0 15 -4 30 -10 33 -5 3 -10 13 -10 21 0 24
44 16 95 -18z m43 18 c15 -8 40 -28 57 -46 l30 -31 -31 13 c-37 16 -113 78
-96 78 7 0 25 -6 40 -14z m334 -42 c22 -39 33 -84 20 -84 -9 0 -62 98 -62 115
0 15 26 -4 42 -31z m1638 25 c0 -12 -63 -19 -174 -19 -102 1 -109 2 -81 15 30
14 255 17 255 4z m-1832 -52 c20 -21 21 -25 7 -30 -10 -4 -27 7 -50 31 -19 20
-35 40 -35 45 0 12 53 -19 78 -46z m241 20 c17 -43 23 -87 13 -87 -9 0 -42 92
-42 115 0 13 21 -8 29 -28z m787 8 c-37 -30 -226 -69 -226 -46 0 4 35 16 78
25 42 10 95 24 117 31 58 19 63 17 31 -10z m158 10 c50 -8 117 -17 149 -20 37
-4 55 -10 51 -17 -8 -13 -169 -5 -259 13 -69 14 -69 14 -60 28 8 14 10 14 119
-4z m-464 -14 c14 -4 35 -22 47 -40 46 -68 19 -167 -54 -201 -18 -8 -33 -24
-35 -35 -5 -31 -65 -65 -115 -65 -46 0 -110 27 -134 56 -13 16 -12 17 6 8 41
-19 141 -8 202 22 93 46 121 109 79 176 -22 35 -95 46 -150 23 -39 -17 -10 20
34 43 45 22 75 26 120 13z m985 -5 c71 1 85 -1 65 -9 -14 -6 -99 -12 -189 -14
-91 -2 -167 -5 -169 -8 -7 -6 114 -10 201 -7 37 2 67 1 67 -2 0 -3 -15 -13
-32 -23 -35 -18 -177 -22 -280 -8 -51 7 -57 25 -8 25 16 0 35 8 42 18 24 33
59 41 138 34 41 -4 116 -6 165 -6z m-1622 -24 c36 -37 34 -44 -5 -26 -54 25
-62 30 -66 42 -8 24 45 12 71 -16z m1104 -3 c101 -13 118 -17 110 -25 -15 -15
-248 3 -265 20 -12 13 14 27 39 22 15 -3 67 -10 116 -17z m-897 -48 c4 -23 3
-41 -2 -41 -10 0 -14 12 -22 64 -7 53 14 33 24 -23z m706 30 c-9 -10 -40 -25
-69 -34 -91 -27 -104 -28 -111 -11 -10 25 0 31 64 38 34 4 71 11 83 16 39 16
52 12 33 -9z m-834 -8 c13 -15 58 -100 58 -110 0 -2 -4 -3 -8 -3 -10 0 -92
108 -92 121 0 15 26 10 42 -8z m-69 -23 c18 -11 48 -38 65 -59 27 -33 29 -41
17 -51 -16 -13 -35 -6 -35 14 0 23 -67 78 -87 72 -10 -3 -28 1 -39 9 -16 13
-17 16 -4 25 23 15 45 12 83 -10z m227 -12 c0 -36 -4 -35 -14 5 -4 16 -2 27 4
27 5 0 10 -14 10 -32z m889 16 c2 -2 1 -7 -3 -11 -10 -10 -181 -17 -203 -9
-14 6 -14 8 3 21 15 11 39 13 109 8 50 -3 92 -7 94 -9z m-513 -30 c17 -41 12
-54 -13 -33 -23 19 -90 49 -109 49 -8 0 -12 5 -9 10 3 6 31 10 61 10 54 0 55
-1 70 -36z m-695 -3 c31 -22 47 -27 56 -19 9 7 21 2 43 -20 34 -34 39 -68 13
-88 -26 -19 -30 -17 -26 14 5 34 -17 66 -48 67 -42 3 -119 44 -113 60 9 22 26
19 75 -14z m1449 13 c88 -7 92 -8 50 -15 -53 -9 -280 0 -280 12 0 18 36 18
230 3z m-480 -3 c0 -16 -25 -29 -78 -40 -67 -14 -85 -14 -80 1 2 6 33 19 69
28 79 21 89 22 89 11z m-719 -11 c24 -13 24 -26 0 -40 -16 -8 -21 -5 -30 20
-11 33 -4 37 30 20z m334 -15 c54 -18 115 -47 115 -55 0 -16 -49 -49 -93 -64
-54 -18 -159 -21 -188 -6 -36 20 -21 -21 24 -64 23 -23 50 -53 60 -68 10 -16
26 -28 36 -28 10 0 24 -6 30 -14 9 -11 0 -14 -50 -20 -114 -11 -141 -8 -179
24 -19 17 -40 30 -48 30 -19 0 66 -80 86 -81 9 -1 69 -1 132 0 99 2 119 -1
147 -18 47 -30 88 -97 122 -202 26 -82 74 -289 68 -295 -1 -1 -14 -5 -28 -9
-21 -5 -27 -2 -37 19 -16 36 -29 32 -25 -6 4 -30 0 -35 -39 -52 -24 -11 -70
-47 -104 -81 -47 -48 -68 -80 -94 -141 -18 -43 -38 -82 -44 -86 -20 -13 -80 4
-109 30 -43 41 -66 100 -76 200 -11 103 -9 112 27 151 49 53 64 97 58 170 -10
101 -8 152 5 167 18 21 130 72 175 80 57 9 107 -15 146 -70 38 -55 49 -54 14
2 -32 51 -69 80 -112 88 -45 8 -156 -27 -219 -69 -44 -29 -48 -36 -50 -75 -1
-24 2 -45 6 -48 4 -2 10 -23 14 -45 12 -69 -11 -124 -81 -199 -51 -53 -65 -76
-74 -116 -20 -91 -37 -116 -92 -137 -15 -5 -15 -3 -3 27 12 28 12 36 -1 54
-20 30 -35 28 -70 -9 -16 -17 -47 -40 -68 -51 l-40 -20 24 -18 23 -18 -21 -13
c-12 -8 -22 -22 -22 -32 0 -11 -7 -31 -16 -47 -34 -57 13 -150 77 -150 40 0
36 -16 -16 -66 -56 -55 -110 -62 -70 -10 17 23 19 36 5 36 -5 0 -10 -5 -10
-12 0 -20 -32 -48 -57 -48 -30 0 -29 5 9 39 18 16 30 33 25 37 -4 4 -15 -2
-23 -15 -24 -34 -62 -45 -90 -26 -13 8 -24 22 -24 29 0 19 57 66 81 66 10 0
19 5 19 10 0 20 -38 10 -80 -21 l-44 -32 -23 28 c-30 35 -27 53 16 82 37 25
90 30 109 11 17 -17 28 -2 12 17 -19 22 -79 18 -127 -9 -38 -22 -45 -23 -58
-10 -15 15 -35 76 -35 106 0 41 86 66 151 44 48 -17 64 -12 35 10 -24 17 -128
19 -158 3 -24 -13 -26 -11 -34 29 -5 25 -1 35 21 56 38 35 103 35 164 1 50
-29 51 -29 51 -11 0 7 -23 24 -52 36 -40 17 -65 21 -109 18 -63 -5 -69 0 -69
52 0 73 129 93 215 34 41 -28 58 -25 30 6 -28 31 -97 52 -159 48 l-56 -3 0 31
c0 54 19 68 86 61 46 -5 70 -14 116 -46 63 -45 101 -56 53 -16 -68 57 -114 78
-176 79 -32 1 -59 4 -59 7 0 3 8 13 18 21 25 23 80 27 132 12 54 -17 50 -16
50 -4 0 26 -142 38 -192 16 -14 -6 -18 -3 -18 13 0 31 53 54 112 49 26 -3 48
-2 48 2 0 21 -80 27 -127 10 l-28 -10 28 25 c30 27 57 31 88 15 12 -7 19 -7
19 -1 0 27 -76 41 -99 19 -11 -11 -12 -8 -6 12 7 22 6 23 -9 11 -9 -7 -16 -22
-16 -32 0 -10 -4 -21 -10 -24 -31 -19 4 91 46 145 6 8 19 38 28 66 16 49 67
109 112 132 12 6 54 19 95 28 41 9 106 30 144 48 63 28 80 31 166 31 80 0 100
-3 117 -18 11 -10 23 -14 26 -9 16 26 -97 62 -175 56 -42 -4 -43 -3 -24 12 37
30 156 85 213 99 61 15 122 12 187 -10z m539 5 c-13 -13 -154 -43 -163 -35 -3
4 3 12 14 18 36 22 168 36 149 17z m196 -6 c80 -7 90 -9 60 -16 -44 -10 -245
11 -215 23 11 4 29 6 40 4 11 -2 63 -7 115 -11z m-1352 -30 c20 -9 51 -19 67
-23 26 -6 30 -12 33 -43 3 -32 -1 -39 -26 -52 -29 -15 -29 -15 -29 10 0 33
-38 72 -84 85 -30 9 -43 9 -69 -4 -21 -11 -30 -12 -28 -4 5 13 66 47 86 47 7
0 29 -7 50 -16z m972 1 c0 -16 -58 -35 -108 -35 -56 0 -31 24 33 32 32 4 60
10 63 13 9 8 12 6 12 -10z m305 1 c59 -10 65 -13 40 -18 -48 -10 -155 3 -155
18 0 17 23 17 115 0z m-137 -8 c-7 -22 -60 -42 -123 -46 -60 -4 -60 -4 -39 15
11 12 46 24 80 30 83 15 86 15 82 1z m107 -29 c16 -1 15 -2 -5 -8 -32 -10 -90
-2 -90 11 0 7 15 8 38 4 20 -3 46 -6 57 -7z m-314 -30 c-24 -20 -115 -27 -125
-10 -9 15 21 32 46 27 12 -3 39 -2 58 2 45 11 51 5 21 -19z m199 14 c-1 -34
-54 -53 -128 -45 -75 7 -60 26 25 32 39 3 75 8 79 13 4 4 11 7 16 7 4 0 8 -3
8 -7z m-1303 -65 l82 -43 -34 -13 c-35 -14 -35 -14 -78 30 -45 47 -92 67 -110
49 -8 -8 -6 -11 6 -11 30 0 72 -27 100 -63 l25 -34 -30 -34 c-33 -37 -67 -104
-68 -131 0 -10 -3 -18 -7 -18 -5 0 -21 -23 -37 -51 -29 -52 -36 -98 -23 -154
l6 -30 -14 30 c-7 17 -30 66 -50 110 -21 44 -53 114 -72 154 l-34 75 73 73
c75 76 116 102 158 103 14 0 62 -19 107 -42z m1063 15 c19 -17 -77 -30 -128
-17 -20 6 -21 8 -6 18 15 11 121 10 134 -1z m210 -20 c0 -31 -88 -43 -162 -22
-35 9 -45 19 -34 30 3 2 48 4 100 4 69 0 96 -3 96 -12z m-302 -16 c12 -1 21
-6 19 -12 -4 -10 -84 -11 -94 -1 -11 11 10 26 30 21 12 -3 32 -7 45 -8z m139
-23 c31 -9 71 -14 89 -11 19 3 34 1 34 -4 0 -17 -53 -31 -93 -25 -48 8 -117
36 -117 47 0 13 25 11 87 -7z m-179 -14 c6 0 12 -4 12 -10 0 -11 -49 -14 -75
-4 -24 9 3 26 30 19 11 -2 26 -5 33 -5z m160 -27 c57 -20 59 -33 5 -33 -45 0
-122 38 -102 51 15 10 16 10 97 -18z m-238 7 c12 -8 9 -10 -13 -10 -16 0 -26
4 -22 10 8 12 16 12 35 0z m126 -10 c5 -5 27 -19 49 -29 31 -16 35 -20 18 -21
-38 0 -102 30 -96 46 6 16 15 18 29 4z m-198 -28 c19 -28 -1 -30 -21 -1 -8 11
-17 15 -19 9 -2 -7 -10 -6 -23 4 -19 15 -18 15 14 13 22 -2 39 -10 49 -25z
m57 -12 c17 -18 23 -30 15 -30 -15 0 -60 39 -60 52 0 16 17 8 45 -22z m100 5
c26 -16 34 -25 22 -25 -22 0 -77 30 -77 42 0 13 13 9 55 -17z m-48 -10 c18
-11 33 -23 33 -27 0 -16 -21 -7 -52 23 -36 33 -31 34 19 4z m286 -37 c44 -83
60 -186 47 -291 -27 -220 -145 -480 -276 -612 -53 -52 -91 -77 -81 -52 3 8 8
48 11 88 l5 74 -15 -75 c-18 -95 -54 -222 -65 -235 -5 -5 -9 12 -9 43 0 29 -4
52 -10 52 -13 0 -30 -34 -31 -62 -1 -18 -3 -16 -13 12 -18 57 -27 66 -43 45
-7 -11 -13 -28 -13 -39 -1 -16 -4 -13 -15 12 -15 35 -31 42 -38 14 -5 -20 -5
-18 -30 65 l-15 53 26 -6 c15 -3 33 -8 41 -10 18 -6 61 22 61 40 0 7 16 44 34
82 50 99 139 183 220 208 12 4 16 12 12 22 -5 13 -3 14 6 7 7 -6 28 -8 47 -5
l34 5 -6 71 c-7 86 -60 294 -90 356 -12 24 -41 64 -64 89 -24 24 -41 46 -39
48 2 2 16 -2 30 -9 21 -9 32 -9 46 0 11 6 26 9 35 6 8 -4 21 -2 28 4 6 5 26
10 42 10 17 0 41 5 55 11 41 16 55 13 73 -21z m217 -258 c-18 -34 -75 -53
-116 -40 -19 6 -34 18 -34 26 0 12 4 12 21 4 54 -30 127 3 130 59 l2 26 4 -27
c2 -15 -1 -37 -7 -48z m-914 -452 c12 -64 25 -100 50 -138 19 -29 34 -54 34
-56 0 -3 -16 7 -36 22 -23 18 -31 30 -23 35 8 4 0 13 -22 24 -19 10 -48 28
-66 41 -31 24 -32 25 -17 59 7 19 14 42 14 52 0 9 10 37 23 62 22 46 22 46 25
16 1 -16 9 -69 18 -117z m-178 -4 c6 -45 -72 -90 -124 -70 -13 5 -7 13 31 38
26 17 49 37 52 45 8 21 38 11 41 -13z m136 -109 c17 -10 40 -30 53 -45 12 -15
36 -33 52 -39 30 -13 41 -41 41 -108 0 -31 -2 -34 -16 -22 -22 18 -36 -6 -30
-51 l5 -35 -22 40 c-29 51 -57 59 -57 15 l0 -31 -28 33 c-36 42 -162 253 -162
271 0 2 12 2 28 0 15 -3 36 2 47 11 18 13 22 13 40 -3 11 -9 33 -26 49 -36z
m-189 -153 c-4 -11 -9 -12 -17 -4 -8 8 -15 9 -25 1 -10 -9 -13 -8 -13 5 0 9
-7 16 -16 16 -23 0 -13 32 14 46 13 6 29 17 35 23 9 9 14 2 20 -29 5 -23 6
-49 2 -58z m683 -33 c-20 -64 -24 -69 -29 -43 l-5 29 -22 -35 -22 -35 0 47 c0
44 3 48 48 81 26 19 49 33 50 31 2 -1 -7 -35 -20 -75z m-742 12 c5 -5 18 -11
29 -13 19 -5 19 -5 1 -13 -20 -9 -47 3 -54 23 -4 14 10 16 24 3z m539 -83 c7
-34 5 -38 -14 -38 -16 0 -21 6 -21 28 0 15 3 38 7 51 7 29 18 13 28 -41z m-60
-7 c5 -25 4 -32 -6 -29 -22 7 -32 34 -25 64 9 33 19 21 31 -35z m115 14 c0
-34 -4 -45 -15 -45 -12 0 -14 7 -9 28 17 77 24 82 24 17z m-171 2 c0 -21 -1
-21 -9 -2 -12 28 -12 37 0 30 6 -3 10 -16 9 -28z m-29 -23 c0 -6 -7 -14 -15
-18 -12 -4 -15 3 -15 32 1 35 2 36 15 18 8 -11 15 -25 15 -32z m-74 -22 c-21
-5 -22 -4 -30 33 l-6 30 26 -30 c24 -26 25 -30 10 -33z m330 11 c-10 -26 -18
-8 -9 23 5 21 8 24 11 11 2 -10 1 -25 -2 -34z m50 1 c-3 -8 -12 -14 -20 -14
-12 0 -12 5 2 33 13 25 17 28 20 14 2 -10 1 -25 -2 -33z"/>
<path d="M1265 1213 c-33 -8 -42 -21 -42 -63 0 -22 -8 -51 -17 -65 -9 -14 -12
-25 -6 -25 16 0 40 56 40 95 0 22 5 35 13 35 7 0 22 7 33 15 19 15 15 17 -21
8z"/>
<path d="M1265 1069 c-32 -29 -65 -76 -65 -95 0 -4 13 11 30 34 16 22 46 52
67 66 23 16 31 26 21 26 -10 0 -33 -14 -53 -31z"/>
<path d="M914 1046 c6 -45 49 -96 80 -96 17 0 15 4 -12 20 -18 11 -36 30 -41
42 -5 13 -14 34 -20 48 -10 23 -11 21 -7 -14z"/>
<path d="M1163 1006 c-7 -8 -17 -16 -23 -18 -6 -2 -13 -15 -14 -28 -2 -14 -7
-34 -11 -45 -7 -18 -5 -17 21 5 16 14 30 26 32 26 4 2 13 74 10 74 -2 -1 -8
-7 -15 -14z"/>
<path d="M1015 390 c3 -5 8 -10 11 -10 2 0 4 5 4 10 0 6 -5 10 -11 10 -5 0 -7
-4 -4 -10z"/>
<path d="M1060 384 c0 -8 5 -12 10 -9 6 3 10 10 10 16 0 5 -4 9 -10 9 -5 0
-10 -7 -10 -16z"/>
</g>
</svg>
